<svg width="22" height="22" viewBox="0 0 22 22" fill="none" xmlns="http://www.w3.org/2000/svg">
<path d="M3.5498 10.6495C3.5498 10.9345 3.65083 11.178 3.85288 11.3799C4.05493 11.5818 4.29561 11.6828 4.57492 11.6828H9.62916V16.7246C9.62916 17.0037 9.72721 17.2442 9.92332 17.4461C10.1254 17.6481 10.369 17.749 10.6543 17.749C10.9395 17.749 11.1802 17.6481 11.3763 17.4461C11.5784 17.2442 11.6794 17.0037 11.6794 16.7246V11.6828H16.7336C17.0129 11.6828 17.2506 11.5818 17.4467 11.3799C17.6488 11.178 17.7498 10.9345 17.7498 10.6495C17.7498 10.3704 17.6488 10.1299 17.4467 9.92797C17.2506 9.72606 17.0129 9.6251 16.7336 9.6251H11.6794V4.58329C11.6794 4.30418 11.5784 4.06367 11.3763 3.86176C11.1802 3.65391 10.9395 3.54999 10.6543 3.54999C10.369 3.54999 10.1254 3.65391 9.92332 3.86176C9.72721 4.06367 9.62916 4.30418 9.62916 4.58329V9.6251H4.57492C4.29561 9.6251 4.05493 9.72606 3.85288 9.92797C3.65083 10.1299 3.5498 10.3704 3.5498 10.6495Z" fill="#F3A952"/>
<circle cx="10.65" cy="10.65" r="10.65" fill="#F3A952" fill-opacity="0.25"/>
</svg>
