<svg xmlns="http://www.w3.org/2000/svg" width="43" height="66" viewBox="0 0 43 66" fill="none" class="injected-svg" data-src="/static/media/mobile.2a87888015d03333b4597c19c564d6d3.svg" xmlns:xlink="http://www.w3.org/1999/xlink">
<path d="M36.3846 0H6.61538C2.97692 0 0 2.97 0 6.6V59.4C0 63.03 2.97692 66 6.61538 66H36.3846C40.0231 66 43 63.03 43 59.4V6.6C43 2.97 40.0231 0 36.3846 0ZM23.1538 59.4H19.8462C18.1923 59.4 16.5385 58.08 16.5385 56.1C16.5385 54.45 18.1923 52.8 19.8462 52.8H23.1538C25.1385 52.8 26.4615 54.45 26.4615 56.1C26.4615 58.08 25.1385 59.4 23.1538 59.4ZM36.3846 46.2H6.61538V6.6H36.3846V46.2Z" fill="#5B5A67"></path>
</svg>