<svg width="12" height="17" viewBox="0 0 12 17" fill="none" xmlns="http://www.w3.org/2000/svg">
<path d="M10.1904 16.2139C10.999 16.2139 11.6143 15.6074 11.6143 14.7988V2.23926C11.6143 1.43066 10.999 0.797852 10.1816 0.797852C9.68066 0.797852 9.27637 0.991211 8.74023 1.49219L5.42676 4.56836C5.38281 4.6123 5.33887 4.62988 5.27734 4.62988H2.9834C1.5332 4.62988 0.742188 5.45605 0.742188 6.97656V10.0439C0.742188 11.5557 1.5332 12.3906 2.9834 12.3906H5.26855C5.33008 12.3906 5.37402 12.3994 5.42676 12.4346L8.74023 15.5371C9.25 16.0117 9.6543 16.2139 10.1904 16.2139Z" fill="#F3A952"/>
</svg>
