<svg width="27" height="19" viewBox="0 0 27 19" fill="none" xmlns="http://www.w3.org/2000/svg">
<path d="M22.4336 18.3125C22.9961 18.6377 23.6904 18.4707 24.0332 17.9082C25.5361 15.5 26.415 12.626 26.415 9.51465C26.415 6.40332 25.5273 3.5293 24.0332 1.12109C23.6904 0.549805 22.9961 0.391602 22.4336 0.725586C21.8447 1.06836 21.748 1.79785 22.1436 2.44824C23.374 4.46973 24.1123 6.89551 24.1123 9.51465C24.1123 12.1338 23.374 14.5596 22.1436 16.5811C21.748 17.2314 21.8447 17.9609 22.4336 18.3125ZM10.1904 17.2139C10.999 17.2139 11.6143 16.6074 11.6143 15.7988V3.23926C11.6143 2.43066 10.999 1.79785 10.1816 1.79785C9.67188 1.79785 9.27637 1.99121 8.73145 2.49219L5.42676 5.56836C5.38281 5.6123 5.33008 5.62988 5.27734 5.62988H2.9834C1.5332 5.62988 0.742188 6.45605 0.742188 7.97656V11.0439C0.742188 12.5557 1.5332 13.3906 2.9834 13.3906H5.26855C5.33008 13.3906 5.37402 13.3994 5.41797 13.4346L8.73145 16.5371C9.24121 17.0117 9.6543 17.2139 10.1904 17.2139ZM18.5049 15.9395C19.0498 16.2471 19.7178 16.124 20.0693 15.5791C21.1943 13.874 21.8359 11.7383 21.8359 9.49707C21.8359 7.25586 21.2031 5.11133 20.0693 3.41504C19.7178 2.87012 19.0498 2.73828 18.5049 3.05469C17.8896 3.40625 17.8193 4.15332 18.2236 4.82129C19.0586 6.13965 19.5332 7.77441 19.5332 9.49707C19.5332 11.2109 19.0498 12.8457 18.2236 14.1729C17.8193 14.8408 17.8896 15.5879 18.5049 15.9395ZM14.5498 13.5752C15.0771 13.9004 15.7275 13.7686 16.0615 13.3027C16.8086 12.2744 17.248 10.9209 17.248 9.49707C17.248 8.07324 16.8086 6.72852 16.0615 5.68262C15.7275 5.2168 15.0771 5.09375 14.5498 5.41895C13.9785 5.77051 13.8379 6.45605 14.3125 7.24707C14.7168 7.87109 14.9365 8.6709 14.9365 9.49707C14.9365 10.3232 14.7168 11.1143 14.3125 11.7471C13.8379 12.5381 13.9785 13.2236 14.5498 13.5752Z" fill="#F3A952"/>
</svg>
