<svg width="24" height="24" viewBox="0 0 24 24" fill="none" xmlns="http://www.w3.org/2000/svg">
    <circle cx="12" cy="12" r="12" fill="#fff"/>
    <path d="M8.52368 18.9816C8.27807 18.9202 8.12161 18.7667 8.05432 18.5211C7.98653 18.2754 8.0386 18.0667 8.21053 17.8947L8.57895 17.5263C7.85439 17.5263 7.24354 17.2778 6.74642 16.7806C6.24881 16.283 6 15.6719 6 14.9474V7.94737C6 7.29649 6.16898 6.77751 6.50695 6.39042C6.84442 6.00382 7.28947 5.70909 7.84211 5.50621C8.39474 5.30382 9.024 5.16874 9.72989 5.10095C10.4363 5.03365 11.1579 5 11.8947 5C12.7053 5 13.4699 5.03365 14.1885 5.10095C14.9067 5.16874 15.533 5.30382 16.0675 5.50621C16.6014 5.70909 17.0219 6.00382 17.3289 6.39042C17.636 6.77751 17.7895 7.29649 17.7895 7.94737V14.9474C17.7895 15.6719 17.5409 16.283 17.0438 16.7806C16.5462 17.2778 15.9351 17.5263 15.2105 17.5263L15.5789 17.8947C15.7509 18.0667 15.8029 18.2754 15.7352 18.5211C15.6679 18.7667 15.5114 18.9202 15.2658 18.9816C15.1553 19.0061 15.0479 19.0061 14.9438 18.9816C14.8392 18.957 14.7439 18.9018 14.6579 18.8158L13.3684 17.5263H10.4211L9.13158 18.8158C9.04561 18.9018 8.95056 18.957 8.84642 18.9816C8.74179 19.0061 8.63421 19.0061 8.52368 18.9816ZM7.47368 10.8947H11.1579V8.68421H7.47368V10.8947ZM12.6316 10.8947H16.3158V8.68421H12.6316V10.8947ZM9.31579 15.3158C9.63509 15.3158 9.89912 15.2114 10.1079 15.0026C10.3167 14.7939 10.4211 14.5298 10.4211 14.2105C10.4211 13.8912 10.3167 13.6272 10.1079 13.4184C9.89912 13.2096 9.63509 13.1053 9.31579 13.1053C8.99649 13.1053 8.73246 13.2096 8.52368 13.4184C8.31491 13.6272 8.21053 13.8912 8.21053 14.2105C8.21053 14.5298 8.31491 14.7939 8.52368 15.0026C8.73246 15.2114 8.99649 15.3158 9.31579 15.3158ZM14.4737 15.3158C14.793 15.3158 15.057 15.2114 15.2658 15.0026C15.4746 14.7939 15.5789 14.5298 15.5789 14.2105C15.5789 13.8912 15.4746 13.6272 15.2658 13.4184C15.057 13.2096 14.793 13.1053 14.4737 13.1053C14.1544 13.1053 13.8904 13.2096 13.6816 13.4184C13.4728 13.6272 13.3684 13.8912 13.3684 14.2105C13.3684 14.5298 13.4728 14.7939 13.6816 15.0026C13.8904 15.2114 14.1544 15.3158 14.4737 15.3158Z" fill="#000000" fill-rule="evenodd"/>
</svg>

